<svg id="svg" fill="#000000" stroke="#000000" width="800" height="800" version="1.1" viewBox="144 144 512 512" xmlns="http://www.w3.org/2000/svg">
    <g id="IconSvg_bgCarrier" stroke-width="0"></g>
    <g id="IconSvg_tracerCarrier" stroke-linecap="round" stroke-linejoin="round" stroke="#CCCCCC" stroke-width="0">
      <path xmlns="http://www.w3.org/2000/svg" d="m400 171.66c-125.91 0-228.34 102.43-228.34 228.34 0 125.9 102.43 228.34 228.34 228.34 125.9 0 228.34-102.43 228.34-228.34 0-125.91-102.43-228.34-228.34-228.34zm0 15.742c117.22 0 212.59 95.371 212.59 212.59 0 50.285-17.586 96.527-46.887 132.96-3.5664-56.672-35.195-106.75-84.859-134.34 10.125-15.305 16.059-33.613 16.059-53.293 0-53.434-43.469-96.914-96.906-96.914-53.309 0-96.684 43.469-96.684 96.914 0 19.672 5.9102 37.957 15.996 53.254-49.758 27.605-81.453 77.703-85.02 134.38-29.301-36.441-46.887-82.68-46.887-132.96 0-117.22 95.371-212.59 212.59-212.59zm-80.941 157.92c0-44.754 36.312-81.168 80.941-81.168 44.754 0 81.16 36.406 81.16 81.168 0 44.758-36.41 81.16-81.16 81.16-44.629 0-80.941-36.41-80.941-81.16zm-69.094 205.14c-0.14062-2.2578-0.30859-4.5117-0.30859-6.7617 0-56.113 30.371-106.32 79.57-132.57 17.672 19.074 42.816 31.094 70.77 31.094 28.008 0 53.199-12.012 70.902-31.07 49.113 26.215 79.43 76.422 79.43 132.54 0 2.2031-0.070313 4.4102-0.14062 6.6133-38.484 38.453-91.605 62.273-150.19 62.273-58.508 0-111.55-23.758-150.04-62.125z"></path>

      </g>
     <g id="IconSvg_iconCarrier">
      <path xmlns="http://www.w3.org/2000/svg" d="m400 171.66c-125.91 0-228.34 102.43-228.34 228.34 0 125.9 102.43 228.34 228.34 228.34 125.9 0 228.34-102.43 228.34-228.34 0-125.91-102.43-228.34-228.34-228.34zm0 15.742c117.22 0 212.59 95.371 212.59 212.59 0 50.285-17.586 96.527-46.887 132.96-3.5664-56.672-35.195-106.75-84.859-134.34 10.125-15.305 16.059-33.613 16.059-53.293 0-53.434-43.469-96.914-96.906-96.914-53.309 0-96.684 43.469-96.684 96.914 0 19.672 5.9102 37.957 15.996 53.254-49.758 27.605-81.453 77.703-85.02 134.38-29.301-36.441-46.887-82.68-46.887-132.96 0-117.22 95.371-212.59 212.59-212.59zm-80.941 157.92c0-44.754 36.312-81.168 80.941-81.168 44.754 0 81.16 36.406 81.16 81.168 0 44.758-36.41 81.16-81.16 81.16-44.629 0-80.941-36.41-80.941-81.16zm-69.094 205.14c-0.14062-2.2578-0.30859-4.5117-0.30859-6.7617 0-56.113 30.371-106.32 79.57-132.57 17.672 19.074 42.816 31.094 70.77 31.094 28.008 0 53.199-12.012 70.902-31.07 49.113 26.215 79.43 76.422 79.43 132.54 0 2.2031-0.070313 4.4102-0.14062 6.6133-38.484 38.453-91.605 62.273-150.19 62.273-58.508 0-111.55-23.758-150.04-62.125z"></path>

      </g>
      </svg>